<svg width="206" height="38" viewBox="0 0 206 38" fill="none" xmlns="http://www.w3.org/2000/svg">
<ellipse cx="4.73089" cy="29.135" rx="3.73089" ry="3.77695" fill="#089917"/>
<ellipse opacity="0.9" cx="4.73089" cy="26.5811" rx="3.73089" ry="3.77695" fill="#089917"/>
<ellipse opacity="0.8" cx="4.73089" cy="24.0272" rx="3.73089" ry="3.77695" fill="#089917"/>
<ellipse opacity="0.7" cx="4.73089" cy="21.4733" rx="3.73089" ry="3.77695" fill="#089917"/>
<ellipse opacity="0.55" cx="4.73089" cy="18.9194" rx="3.73089" ry="3.77695" fill="#089917"/>
<ellipse cx="15.1926" cy="29.135" rx="3.73089" ry="3.77695" fill="#089917"/>
<ellipse opacity="0.9" cx="15.1926" cy="26.5811" rx="3.73089" ry="3.77695" fill="#089917"/>
<ellipse opacity="0.8" cx="15.1926" cy="24.0272" rx="3.73089" ry="3.77695" fill="#089917"/>
<ellipse opacity="0.7" cx="15.1926" cy="21.4733" rx="3.73089" ry="3.77695" fill="#089917"/>
<ellipse opacity="0.55" cx="15.1926" cy="18.9194" rx="3.73089" ry="3.77695" fill="#089917"/>
<ellipse opacity="0.4" cx="15.1926" cy="16.3655" rx="3.73089" ry="3.77695" fill="#089917"/>
<circle opacity="0.3" cx="15.158" cy="13.8922" r="3.69634" fill="#089917"/>
<ellipse cx="25.6545" cy="29.135" rx="3.73089" ry="3.77695" fill="#089917"/>
<ellipse opacity="0.9" cx="25.6545" cy="26.5811" rx="3.73089" ry="3.77695" fill="#089917"/>
<ellipse opacity="0.8" cx="25.6545" cy="24.0272" rx="3.73089" ry="3.77695" fill="#089917"/>
<ellipse opacity="0.7" cx="25.6545" cy="21.4733" rx="3.73089" ry="3.77695" fill="#089917"/>
<ellipse opacity="0.55" cx="25.6545" cy="18.9194" rx="3.73089" ry="3.77695" fill="#089917"/>
<ellipse opacity="0.4" cx="25.6545" cy="16.3655" rx="3.73089" ry="3.77695" fill="#089917"/>
<circle opacity="0.3" cx="25.6199" cy="13.8922" r="3.69634" fill="#089917"/>
<ellipse opacity="0.2" cx="25.6545" cy="11.4189" rx="3.73089" ry="3.77695" fill="#089917"/>
<ellipse opacity="0.05" cx="25.6545" cy="8.86502" rx="3.73089" ry="3.77695" fill="#089917"/>
<path d="M47.8246 30.32C46.502 30.32 45.318 30.096 44.2726 29.648C43.2273 29.1787 42.3206 28.5387 41.5526 27.728C40.806 26.9173 40.23 26 39.8246 24.976C39.4193 23.9307 39.2166 22.8213 39.2166 21.648C39.2166 20.4747 39.4193 19.3653 39.8246 18.32C40.23 17.2747 40.806 16.3573 41.5526 15.568C42.3206 14.7573 43.2273 14.128 44.2726 13.68C45.3393 13.2107 46.5233 12.976 47.8246 12.976C49.126 12.976 50.2993 13.2107 51.3446 13.68C52.4113 14.128 53.318 14.7573 54.0646 15.568C54.8326 16.3573 55.4193 17.2747 55.8246 18.32C56.23 19.3653 56.4326 20.4747 56.4326 21.648C56.4326 22.8213 56.23 23.9307 55.8246 24.976C55.4193 26 54.8326 26.9173 54.0646 27.728C53.318 28.5387 52.4113 29.1787 51.3446 29.648C50.2993 30.096 49.126 30.32 47.8246 30.32ZM42.8326 21.68C42.8326 22.7467 43.0566 23.7067 43.5046 24.56C43.9526 25.4133 44.55 26.0853 45.2966 26.576C46.0433 27.0667 46.886 27.312 47.8246 27.312C48.742 27.312 49.574 27.0667 50.3206 26.576C51.0886 26.064 51.6966 25.3813 52.1446 24.528C52.5926 23.6533 52.8166 22.6933 52.8166 21.648C52.8166 20.5813 52.5926 19.6213 52.1446 18.768C51.6966 17.9147 51.0886 17.2427 50.3206 16.752C49.574 16.24 48.742 15.984 47.8246 15.984C46.886 15.984 46.0433 16.24 45.2966 16.752C44.55 17.264 43.9526 17.9467 43.5046 18.8C43.0566 19.632 42.8326 20.592 42.8326 21.68ZM68.9626 16.304C67.5973 16.3253 66.3813 16.6347 65.3146 17.232C64.2693 17.8293 63.5226 18.672 63.0746 19.76V30H59.5546V13.264H62.8186V17.008C63.3946 15.856 64.152 14.9387 65.0906 14.256C66.0293 13.552 67.0213 13.168 68.0666 13.104C68.28 13.104 68.4506 13.104 68.5786 13.104C68.728 13.104 68.856 13.1147 68.9626 13.136V16.304ZM77.8974 30.16C76.7667 30.16 75.732 29.936 74.7934 29.488C73.8547 29.0187 73.044 28.3893 72.3614 27.6C71.7 26.8107 71.1774 25.904 70.7934 24.88C70.4307 23.856 70.2494 22.7787 70.2494 21.648C70.2494 20.4533 70.4414 19.3333 70.8254 18.288C71.2094 17.2427 71.7427 16.3253 72.4254 15.536C73.1294 14.7253 73.9507 14.096 74.8894 13.648C75.828 13.2 76.8734 12.976 78.0254 12.976C79.3694 12.976 80.5427 13.296 81.5454 13.936C82.5694 14.576 83.412 15.408 84.0734 16.432V13.264H87.1774V29.52C87.1774 31.1413 86.7827 32.5173 85.9934 33.648C85.2254 34.7787 84.1694 35.6427 82.8254 36.24C81.4814 36.8373 79.9667 37.136 78.2814 37.136C76.4254 37.136 74.8894 36.816 73.6734 36.176C72.4574 35.536 71.4227 34.6613 70.5694 33.552L72.5534 31.696C73.1934 32.592 74.0147 33.2747 75.0174 33.744C76.0414 34.2133 77.1294 34.448 78.2814 34.448C79.2414 34.448 80.1267 34.2667 80.9374 33.904C81.7694 33.5627 82.4307 33.0187 82.9214 32.272C83.412 31.5467 83.6574 30.6293 83.6574 29.52V26.96C83.06 27.9627 82.2387 28.752 81.1934 29.328C80.148 29.8827 79.0494 30.16 77.8974 30.16ZM79.0494 27.312C79.5827 27.312 80.0947 27.2267 80.5854 27.056C81.076 26.864 81.524 26.6187 81.9294 26.32C82.356 26 82.7187 25.648 83.0174 25.264C83.316 24.8587 83.5294 24.432 83.6574 23.984V19.6C83.38 18.8747 82.9854 18.2453 82.4734 17.712C81.9614 17.1573 81.3854 16.7307 80.7454 16.432C80.1054 16.1333 79.4547 15.984 78.7934 15.984C78.0254 15.984 77.332 16.1547 76.7134 16.496C76.116 16.816 75.604 17.2533 75.1774 17.808C74.7507 18.3413 74.42 18.9493 74.1854 19.632C73.9507 20.3147 73.8334 21.0187 73.8334 21.744C73.8334 22.512 73.9614 23.2267 74.2174 23.888C74.4947 24.5493 74.868 25.1467 75.3374 25.68C75.8067 26.192 76.3614 26.5973 77.0014 26.896C77.6414 27.1733 78.324 27.312 79.0494 27.312ZM90.1824 25.104C90.1824 24.0373 90.481 23.1093 91.0784 22.32C91.697 21.5093 92.5397 20.8907 93.6064 20.464C94.673 20.016 95.9104 19.792 97.3184 19.792C98.065 19.792 98.8224 19.8453 99.5904 19.952C100.38 20.0587 101.073 20.2293 101.67 20.464V19.408C101.67 18.2347 101.318 17.3173 100.614 16.656C99.9104 15.9947 98.897 15.664 97.5744 15.664C96.6357 15.664 95.7504 15.8347 94.9184 16.176C94.0864 16.496 93.201 16.9547 92.2624 17.552L91.0784 15.184C92.1877 14.4373 93.297 13.8827 94.4064 13.52C95.537 13.1573 96.721 12.976 97.9584 12.976C100.198 12.976 101.958 13.5733 103.238 14.768C104.54 15.9413 105.19 17.616 105.19 19.792V26.032C105.19 26.4373 105.254 26.7253 105.382 26.896C105.532 27.0667 105.777 27.1627 106.118 27.184V30C105.798 30.064 105.51 30.1067 105.254 30.128C104.998 30.1493 104.785 30.16 104.614 30.16C103.868 30.16 103.302 29.9787 102.918 29.616C102.534 29.2533 102.31 28.8267 102.246 28.336L102.15 27.376C101.425 28.3147 100.497 29.04 99.3664 29.552C98.2357 30.064 97.0944 30.32 95.9424 30.32C94.833 30.32 93.841 30.096 92.9664 29.648C92.0917 29.1787 91.409 28.5493 90.9184 27.76C90.4277 26.9707 90.1824 26.0853 90.1824 25.104ZM100.838 26.128C101.094 25.8507 101.297 25.5733 101.446 25.296C101.596 25.0187 101.67 24.7733 101.67 24.56V22.64C101.073 22.4053 100.444 22.2347 99.7824 22.128C99.121 22 98.4704 21.936 97.8304 21.936C96.5504 21.936 95.505 22.192 94.6944 22.704C93.905 23.216 93.5104 23.92 93.5104 24.816C93.5104 25.3067 93.6384 25.776 93.8944 26.224C94.1717 26.672 94.5557 27.0347 95.0464 27.312C95.5584 27.5893 96.1877 27.728 96.9344 27.728C97.7024 27.728 98.4384 27.5787 99.1424 27.28C99.8464 26.9813 100.412 26.5973 100.838 26.128ZM124.469 30H120.949V20.624C120.949 19.0667 120.693 17.9253 120.181 17.2C119.69 16.4747 118.954 16.112 117.973 16.112C117.29 16.112 116.608 16.2827 115.925 16.624C115.264 16.9653 114.666 17.4347 114.133 18.032C113.6 18.608 113.216 19.28 112.981 20.048V30H109.461V13.264H112.661V16.624C113.088 15.8773 113.642 15.2373 114.325 14.704C115.029 14.1493 115.818 13.7227 116.693 13.424C117.568 13.1253 118.496 12.976 119.477 12.976C120.48 12.976 121.301 13.1573 121.941 13.52C122.602 13.8827 123.114 14.384 123.477 15.024C123.861 15.6427 124.117 16.368 124.245 17.2C124.394 18.0107 124.469 18.8747 124.469 19.792V30ZM128.555 30V13.264H132.075V30H128.555ZM128.555 10.512V6.64H132.075V10.512H128.555ZM135.089 27.792L145.009 15.76H135.441V13.264H148.849V15.472L138.993 27.504H148.945V30H135.089V27.792ZM150.87 27.792L160.79 15.76H151.222V13.264H164.63V15.472L154.774 27.504H164.726V30H150.87V27.792ZM175.106 30.32C173.783 30.32 172.599 30.096 171.554 29.648C170.509 29.1787 169.602 28.5387 168.834 27.728C168.087 26.9173 167.511 26 167.106 24.976C166.701 23.9307 166.498 22.8213 166.498 21.648C166.498 20.4747 166.701 19.3653 167.106 18.32C167.511 17.2747 168.087 16.3573 168.834 15.568C169.602 14.7573 170.509 14.128 171.554 13.68C172.621 13.2107 173.805 12.976 175.106 12.976C176.407 12.976 177.581 13.2107 178.626 13.68C179.693 14.128 180.599 14.7573 181.346 15.568C182.114 16.3573 182.701 17.2747 183.106 18.32C183.511 19.3653 183.714 20.4747 183.714 21.648C183.714 22.8213 183.511 23.9307 183.106 24.976C182.701 26 182.114 26.9173 181.346 27.728C180.599 28.5387 179.693 29.1787 178.626 29.648C177.581 30.096 176.407 30.32 175.106 30.32ZM170.114 21.68C170.114 22.7467 170.338 23.7067 170.786 24.56C171.234 25.4133 171.831 26.0853 172.578 26.576C173.325 27.0667 174.167 27.312 175.106 27.312C176.023 27.312 176.855 27.0667 177.602 26.576C178.37 26.064 178.978 25.3813 179.426 24.528C179.874 23.6533 180.098 22.6933 180.098 21.648C180.098 20.5813 179.874 19.6213 179.426 18.768C178.978 17.9147 178.37 17.2427 177.602 16.752C176.855 16.24 176.023 15.984 175.106 15.984C174.167 15.984 173.325 16.24 172.578 16.752C171.831 17.264 171.234 17.9467 170.786 18.8C170.338 19.632 170.114 20.592 170.114 21.68ZM186.676 23.504V13.264H190.196V22.8C190.196 24.2933 190.463 25.424 190.996 26.192C191.551 26.9387 192.351 27.312 193.396 27.312C194.057 27.312 194.697 27.1733 195.316 26.896C195.956 26.6187 196.532 26.2133 197.044 25.68C197.577 25.1253 198.004 24.464 198.324 23.696V13.264H201.844V26.032C201.844 26.4373 201.919 26.7253 202.068 26.896C202.217 27.0667 202.463 27.1627 202.804 27.184V30C202.441 30.064 202.143 30.1067 201.908 30.128C201.673 30.1493 201.449 30.16 201.236 30.16C200.596 30.16 200.063 29.9893 199.636 29.648C199.209 29.2853 198.964 28.8267 198.9 28.272L198.836 26.608C198.089 27.824 197.119 28.752 195.924 29.392C194.729 30.0107 193.417 30.32 191.988 30.32C190.239 30.32 188.916 29.744 188.02 28.592C187.124 27.44 186.676 25.744 186.676 23.504Z" fill="#089917"/>
</svg>
