<svg width="30" height="30" viewBox="0 0 30 30" fill="none" xmlns="http://www.w3.org/2000/svg">
<ellipse cx="4.53826" cy="25.135" rx="3.73089" ry="3.77695" fill="#089917"/>
<ellipse opacity="0.9" cx="4.53826" cy="22.5811" rx="3.73089" ry="3.77695" fill="#089917"/>
<ellipse opacity="0.8" cx="4.53826" cy="20.0272" rx="3.73089" ry="3.77695" fill="#089917"/>
<ellipse opacity="0.7" cx="4.53826" cy="17.4733" rx="3.73089" ry="3.77695" fill="#089917"/>
<ellipse opacity="0.55" cx="4.53826" cy="14.9194" rx="3.73089" ry="3.77695" fill="#089917"/>
<ellipse cx="14.9999" cy="25.135" rx="3.73089" ry="3.77695" fill="#089917"/>
<ellipse opacity="0.9" cx="14.9999" cy="22.5811" rx="3.73089" ry="3.77695" fill="#089917"/>
<ellipse opacity="0.8" cx="14.9999" cy="20.0272" rx="3.73089" ry="3.77695" fill="#089917"/>
<ellipse opacity="0.7" cx="14.9999" cy="17.4733" rx="3.73089" ry="3.77695" fill="#089917"/>
<ellipse opacity="0.55" cx="14.9999" cy="14.9194" rx="3.73089" ry="3.77695" fill="#089917"/>
<ellipse opacity="0.4" cx="14.9999" cy="12.3655" rx="3.73089" ry="3.77695" fill="#089917"/>
<circle opacity="0.3" cx="14.9654" cy="9.8922" r="3.69634" fill="#089917"/>
<ellipse cx="25.4618" cy="25.135" rx="3.73089" ry="3.77695" fill="#089917"/>
<ellipse opacity="0.9" cx="25.4618" cy="22.5811" rx="3.73089" ry="3.77695" fill="#089917"/>
<ellipse opacity="0.8" cx="25.4618" cy="20.0272" rx="3.73089" ry="3.77695" fill="#089917"/>
<ellipse opacity="0.7" cx="25.4618" cy="17.4733" rx="3.73089" ry="3.77695" fill="#089917"/>
<ellipse opacity="0.55" cx="25.4618" cy="14.9194" rx="3.73089" ry="3.77695" fill="#089917"/>
<ellipse opacity="0.4" cx="25.4618" cy="12.3655" rx="3.73089" ry="3.77695" fill="#089917"/>
<circle opacity="0.3" cx="25.4273" cy="9.8922" r="3.69634" fill="#089917"/>
<ellipse opacity="0.2" cx="25.4618" cy="7.41892" rx="3.73089" ry="3.77695" fill="#089917"/>
<ellipse opacity="0.05" cx="25.4618" cy="4.86502" rx="3.73089" ry="3.77695" fill="#089917"/>
</svg>
